# xmcd
#
# Track frame offsets:
#	150
#	19141
#	37771
#	52746
#	69428
#	85947
#	101741
#	121708
#	135343
#	153228
#	169039
#	185155
#	202541
#	219637
#	236367
#	249234
#	262796
#	279981
#	293576
#	311129
#	327779
#
# Disc length: 4567 seconds
#
# Revision: 1
# Processed by: cddbd v1.5.2PL0 Copyright (c) Steve Scherf et al.
# Submitted via: EasyCDDAExtractor 11.5.0.1
#
DISCID=0a11d515
DTITLE=Various Artist - NCT 089
DYEAR=2006
DGENRE=Country
TTITLE0=Keith Urban - Once In A Lifetime
TTITLE1=Rascal Flatts - My Wish
TTITLE2=Carrie Underwood - Before He Cheats
TTITLE3=Tim McGraw - My Little Girl
TTITLE4=Lee Ann Womack - Finding My Way Back Home
TTITLE5=Eric Church - Two Pink Lines
TTITLE6=Sara Evans - You'll Always Be My Baby
TTITLE7=Toby Keith - Crash Here Tonight
TTITLE8=Kenny Chesney - You Save Me
TTITLE9=Trent Willmon - So Am I
TTITLE10=Sugarland - Want To
TTITLE11=Rhett Akins - If Heaven Wasn't So Far Away
TTITLE12=Brad Paisley - She's Everything
TTITLE13=Sarah Buxton - Innocence
TTITLE14=Vince Gill - The Reason Why
TTITLE15=Ray Scott - I Didn't Come Here To Talk
TTITLE16=Lindsey Haun - Broken
TTITLE17=John Anderson - If Her Lovin' Don't Kill Me
TTITLE18=Carolyn Dawn Johnson - Taking Back My Brave
TTITLE19=Todd Fritsch and Gary P. Nunn - Every Honky Tonkin' Hero (Has His Day)
TTITLE20=Sonny Burgess - A Little Bit Stronger
EXTD=
EXTT0=
EXTT1=
EXTT2=
EXTT3=
EXTT4=
EXTT5=
EXTT6=
EXTT7=
EXTT8=
EXTT9=
EXTT10=
EXTT11=
EXTT12=
EXTT13=
EXTT14=
EXTT15=
EXTT16=
EXTT17=
EXTT18=
EXTT19=
EXTT20=
PLAYORDER=
